P3
4 4
15
0 0 0  0 15 0  0 0 0  0 15 6  0 0 0  15 0 14  0 0 0  0 0 0  0 0 0  0 0 0  15 0 14  0 0 0  0 15 6  0 0 0  0 0 0  0 0 0  