P3
4 4
15
0 2 0  4 11 6  0 2 0  5 12 6  2 0 2  8 4 8  2 0 2  2 0 2  2 0 2  2 0 2  8 4 8  2 0 2  7 10 8  0 1 0  0 1 0  0 1 0  